<svg xmlns="http://www.w3.org/2000/svg" width="380" height="370.926" viewBox="0 0 380 370.926">
  <g id="Group_1" data-name="Group 1" transform="translate(-0.001 -0.004)">
    <path id="Path_1" data-name="Path 1" d="M533.6,228.988H431.2a8.812,8.812,0,0,0-8.8,8.8V465.36l-1.173.358-25.119,7.692a4.7,4.7,0,0,1-5.862-3.116L315.533,226.236a4.7,4.7,0,0,1,3.116-5.862l38.708-11.852,112.216-34.348,38.708-11.852a4.688,4.688,0,0,1,5.862,3.11l19.1,62.383Z" transform="translate(-292.358 -145.565)" fill="#EAEEEE"/>
    <path id="Path_2" data-name="Path 2" d="M539.766,216.162l-23.018-75.186a9.971,9.971,0,0,0-12.457-6.619L449.87,151.015,337.66,185.369l-54.421,16.664a9.984,9.984,0,0,0-6.619,12.457l78.671,256.955a9.99,9.99,0,0,0,9.541,7.059,9.851,9.851,0,0,0,2.916-.44l37.306-11.418,1.174-.364v-1.226l-1.174.358L367.4,476.943a8.81,8.81,0,0,1-10.99-5.838L277.747,214.143a8.789,8.789,0,0,1,5.838-10.99l54.421-16.664,112.21-34.348,54.421-16.664a8.792,8.792,0,0,1,10.99,5.838l22.912,74.846.364,1.173h1.221Z" transform="translate(-276.182 -133.913)" fill="#3f3d56"/>
    <path id="Path_3" data-name="Path 3" d="M389.818,214.65a5.29,5.29,0,0,1-5.053-3.736l-7.558-24.686a5.28,5.28,0,0,1,3.5-6.6l103.232-31.6a5.286,5.286,0,0,1,6.6,3.5l7.558,24.686a5.287,5.287,0,0,1-3.5,6.6l-103.233,31.6A5.267,5.267,0,0,1,389.818,214.65Z" transform="translate(-317.834 -139.649)" fill="#000000"/>
    <circle id="Ellipse_1" data-name="Ellipse 1" cx="11.735" cy="11.735" r="11.735" transform="translate(99.838 2.909)" fill="#000000"/>
    <circle id="Ellipse_2" data-name="Ellipse 2" cx="7.431" cy="7.431" r="7.431" transform="translate(104.142 7.213)" fill="#FFFFFF"/>
    <path id="Path_4" data-name="Path 4" d="M735.627,541.7H537.305a4.993,4.993,0,0,1-4.987-4.987V299.074a4.993,4.993,0,0,1,4.987-4.987H735.627a4.993,4.993,0,0,1,4.987,4.987V536.708A4.993,4.993,0,0,1,735.627,541.7Z" transform="translate(-382.03 -200.103)" fill="#EAEEEE"/>
    <path id="Path_5" data-name="Path 5" d="M629.3,274.087H505.793a9.989,9.989,0,0,0-9.975,9.975V523.338l1.173-.358V284.062a8.812,8.812,0,0,1,8.8-8.8H629.667Zm107.669,0H505.793a9.989,9.989,0,0,0-9.975,9.975V552.793a9.989,9.989,0,0,0,9.975,9.975h231.18a9.989,9.989,0,0,0,9.975-9.975V284.062A9.989,9.989,0,0,0,736.972,274.087Zm8.8,278.706a8.812,8.812,0,0,1-8.8,8.8H505.793a8.812,8.812,0,0,1-8.8-8.8V284.062a8.812,8.812,0,0,1,8.8-8.8h231.18a8.812,8.812,0,0,1,8.8,8.8Z" transform="translate(-366.946 -191.838)" fill="#3f3d56"/>
    <path id="Path_6" data-name="Path 6" d="M722.061,292.465H614.1a5.287,5.287,0,0,1-5.281-5.281V261.368a5.287,5.287,0,0,1,5.281-5.281H722.061a5.287,5.287,0,0,1,5.281,5.281v25.817A5.287,5.287,0,0,1,722.061,292.465Z" transform="translate(-413.643 -184.4)" fill="#000000"/>
    <circle id="Ellipse_3" data-name="Ellipse 3" cx="11.735" cy="11.735" r="11.735" transform="translate(242.701 49.977)" fill="#000000"/>
    <circle id="Ellipse_4" data-name="Ellipse 4" cx="7.148" cy="7.148" r="7.148" transform="translate(247.289 54.565)" fill="#FFFFFF"/>
  </g>
</svg>